<svg width="72" height="72" viewBox="0 0 72 72" fill="none" xmlns="http://www.w3.org/2000/svg">
<path fill-rule="evenodd" clip-rule="evenodd" d="M69 36C69 17.7746 54.2254 3 36 3C17.7746 2.99999 3 17.7746 3 36C3 54.2254 17.7746 69 36 69C54.2254 69 69 54.2254 69 36ZM72 36C72 16.1178 55.8823 -2.74401e-06 36 -4.48217e-06C16.1178 -6.22034e-06 4.88538e-06 16.1177 3.14722e-06 36C1.40906e-06 55.8822 16.1177 72 36 72C55.8822 72 72 55.8823 72 36Z" fill="#1AC073"/>
<path d="M47.8911 39.2126C49.2556 38.0174 49.2556 35.8941 47.8911 34.699L34.1057 22.6251C32.1662 20.9265 29.1291 22.3037 29.1291 24.8819L29.1291 49.0297C29.1291 51.6078 32.1662 52.9851 34.1057 51.2864L47.8911 39.2126Z" fill="#1AC073"/>
</svg>
