<svg width="72" height="72" viewBox="0 0 72 72" fill="none" xmlns="http://www.w3.org/2000/svg">
<path fill-rule="evenodd" clip-rule="evenodd" d="M3 35.75C3 17.6627 17.6627 2.99999 35.75 2.99999C53.8373 2.99999 68.5 17.6627 68.5 35.75C68.5 53.8373 53.8373 68.5 35.75 68.5C17.6627 68.5 2.99999 53.8373 3 35.75ZM-4.50403e-06 35.75C-2.77794e-06 16.0058 16.0058 -1.24809e-05 35.75 -1.07548e-05C55.4942 -9.02867e-06 71.5 16.0058 71.5 35.75C71.5 55.4942 55.4942 71.5 35.75 71.5C16.0058 71.5 -6.23012e-06 55.4942 -4.50403e-06 35.75Z" fill="#1AC073"/>
<path d="M23.9595 38.9559C22.595 37.7608 22.595 35.6375 23.9595 34.4423L37.5967 22.4983C39.5362 20.7996 42.5733 22.1769 42.5733 24.755L42.5733 48.6432C42.5733 51.2214 39.5362 52.5987 37.5967 50.9L23.9595 38.9559Z" fill="#1AC073"/>
</svg>
