<svg width="194" height="216" viewBox="0 0 194 216" fill="none" xmlns="http://www.w3.org/2000/svg">
<path d="M21.593 87.5C21.9704 82.8013 24.1048 78.417 27.5713 75.2203C31.0377 72.0236 35.5819 70.249 40.2987 70.25H153.414C158.131 70.249 162.675 72.0236 166.142 75.2203C169.608 78.417 171.742 82.8013 172.12 87.5L179.653 181.25C179.86 183.83 179.53 186.425 178.685 188.871C177.839 191.318 176.496 193.563 174.74 195.465C172.984 197.367 170.852 198.885 168.48 199.924C166.108 200.963 163.546 201.499 160.956 201.5H32.7564C30.1665 201.499 27.6048 200.963 25.2327 199.924C22.8605 198.885 20.7292 197.367 18.9729 195.465C17.2166 193.563 15.8735 191.318 15.028 188.871C14.1825 186.425 13.8529 183.83 14.0601 181.25L21.593 87.5V87.5Z" stroke="#EDEDED" stroke-width="28" stroke-linecap="round" stroke-linejoin="round"/>
<path d="M134.38 98.375V51.5C134.38 41.5544 130.427 32.0161 123.39 24.9835C116.353 17.9509 106.808 14 96.8565 14C86.9045 14 77.3602 17.9509 70.3231 24.9835C63.286 32.0161 59.3326 41.5544 59.3326 51.5V98.375" stroke="#EDEDED" stroke-width="28" stroke-linecap="round" stroke-linejoin="round"/>
</svg>
